<svg xmlns="http://www.w3.org/2000/svg" viewBox="0 0 121 477.09" style=""><defs><style>.cls-1{fill:none;stroke:#fff;stroke-miterlimit:10;}</style></defs><g id="Capa_1" data-name="Capa 1"><path class="cls-1 lmDXEEFZ_0" d="M10.5,50.5A50,50 0,1,1 110.5,50.5A50,50 0,1,1 10.5,50.5"></path></g><g id="Capa_2" data-name="Capa 2"><path class="cls-1 lmDXEEFZ_1" d="M15.5,50.5A45,45 0,1,1 105.5,50.5A45,45 0,1,1 15.5,50.5"></path></g><g id="Capa_3" data-name="Capa 3"><path class="cls-1 lmDXEEFZ_2" d="M20.5,50.5A40,40 0,1,1 100.5,50.5A40,40 0,1,1 20.5,50.5"></path></g><g id="Capa_5" data-name="Capa 5"><path class="cls-1 lmDXEEFZ_3" d="M43.59,34.46L77.41,66.52"></path></g><g id="Capa_6" data-name="Capa 6"><path class="cls-1 lmDXEEFZ_4" d="M76.53,33.59L44.47,67.4"></path></g><g id="Capa_8" data-name="Capa 8"><path class="cls-1 lmDXEEFZ_5" d="M454.94,170.7a2.53,2.53,0,0,0-2.53,2.53,2.07,2.07,0,0,0,0,.5,55,55,0,0,1-110,0,2.07,2.07,0,0,0,0-.5,2.53,2.53,0,1,0-5.06,0A60,60,0,0,0,395,233.16V599.79h5V233.16a60,60,0,0,0,57.5-59.93A2.53,2.53,0,0,0,454.94,170.7Z" transform="translate(-336.97 -123.2)"></path></g><style data-made-with="vivus-instant">.lmDXEEFZ_0{stroke-dasharray:315 317;stroke-dashoffset:316;animation:lmDXEEFZ_draw 2000ms ease 0ms forwards;}.lmDXEEFZ_1{stroke-dasharray:283 285;stroke-dashoffset:284;animation:lmDXEEFZ_draw 2000ms ease 200ms forwards;}.lmDXEEFZ_2{stroke-dasharray:252 254;stroke-dashoffset:253;animation:lmDXEEFZ_draw 2000ms ease 400ms forwards;}.lmDXEEFZ_3{stroke-dasharray:47 49;stroke-dashoffset:48;animation:lmDXEEFZ_draw 2000ms ease 600ms forwards;}.lmDXEEFZ_4{stroke-dasharray:47 49;stroke-dashoffset:48;animation:lmDXEEFZ_draw 2000ms ease 800ms forwards;}.lmDXEEFZ_5{stroke-dasharray:1112 1114;stroke-dashoffset:1113;animation:lmDXEEFZ_draw 2000ms ease 1000ms forwards;}@keyframes lmDXEEFZ_draw{100%{stroke-dashoffset:0;}}@keyframes lmDXEEFZ_fade{0%{stroke-opacity:1;}94.44444444444444%{stroke-opacity:1;}100%{stroke-opacity:0;}}</style></svg>